<svg xmlns="http://www.w3.org/2000/svg" viewBox="0 0 101 100.53"><defs><style>.cls-1{fill:#2bb673;}</style></defs><g id="Layer_2" data-name="Layer 2"><g id="Layer_10" data-name="Layer 10"><path class="cls-1" d="M95.58,39.74c-11.48-8.83.56-26.78-21-28.81-3-.54-6.77.71-9.23-1.36C59.86,2.44,50-4.06,41.91,3.13,36.07,8.51,35.07,11.7,26.27,11c-6.93-.18-13.71,5.19-14.89,11.8-1.21,8.65,1,11.54-7,17.53C-5,49.29,2.44,60,10.65,66.4c-.72,9.2,1.62,21.11,12.46,22.83h0c15,1,9.11.11,20,9a12.92,12.92,0,0,0,15.79-.85c3.31-2,5-6.46,8.76-7.49,10.14,1,22.65-3.56,22.11-15.46C87.89,59.91,111.2,55.87,95.58,39.74ZM10.65,34.16ZM45.14,54.48c4.21-4.84,11.1-10.21,14.11-15.59,3.07-.63,4.26-5.12,7.4-6.25,6-3.46,13.72,5,8.45,10.58-5.39,6.71-12.8,12.2-17.57,19.2C52.9,65.35,50,71.53,44.2,73,35.76,69,30.38,60.61,24,54c-1.89-7.17,6.73-12.61,12-7.11"/></g></g></svg>