<svg xmlns="http://www.w3.org/2000/svg" viewBox="0 0 64.39 57.42"><defs><style>.cls-1{fill:#223265;}</style></defs><g id="Layer_2" data-name="Layer 2"><g id="Screen_3" data-name="Screen 3"><path class="cls-1" d="M61.68,47.76V20c2.41-.62,2.85-1.6,2.61-4.49a73.9,73.9,0,0,1,0-11.62C64.52,1.14,63.63,0,61.13,0H10.88A3.28,3.28,0,0,0,7.6,3.28q0,6.59,0,13.19c0,2.14.42,2.77,2.42,3.6v5.6c-2.41,0-4.67,0-6.93,0A2.94,2.94,0,0,0,0,28.77Q0,41.72,0,54.65a2.51,2.51,0,0,0,2.75,2.73c1.93,0,3.85,0,5.78,0,.67,0,1.35-.06,1.36-.91s-.73-.95-1.44-.95c-1.8,0-3.6,0-5.4,0-.38,0-1.06-.43-1.08-.69-.1-1.65-.05-3.3-.05-5.06H61.25a1,1,0,0,1,1.18,1.15c0,.92,0,1.84,0,2.76,0,1.86,0,1.86-1.9,1.86H14.7a2.6,2.6,0,0,0-1.12,0l-.15.09a1,1,0,0,0,.12,1.69h0a3,3,0,0,0,1.12,0h40.7c2.1,0,4.19,0,6.28,0a2.73,2.73,0,0,0,2.68-2.65c0-.8,0-1.61,0-2.41C64.53,50.11,64.12,48.27,61.68,47.76Zm-48.27,0H1.91c0-1,0-1.94,0-2.89a1,1,0,0,1,.57-.66C6.1,43.1,9.7,42.05,13.41,41Zm.07-9.25a.83.83,0,0,1-.49.59c-3.62,1.1-7.26,2.16-11.08,3.28,0-1.4,0-2.65,0-3.89a.85.85,0,0,1,.48-.62C6,36.75,9.66,35.7,13.5,34.58,13.5,36,13.52,37.25,13.48,38.48Zm-3.14-5L1.93,36c0-2.56-.05-5,.06-7.38,0-.36.74-1,1.15-1q4.57-.14,9.14,0c.42,0,.81.73,1.21,1.13,0,0,0,.16,0,.24C13.73,32.51,13.73,32.51,10.34,33.51Zm1.75-7.88V20h1.32v5.68ZM52.75,47.74H40.13V44.32c.47,0,.93,0,1.37-.13a2.61,2.61,0,0,0,2.22-2.51,2.5,2.5,0,0,0-2.3-2.54,40.55,40.55,0,0,0-4.27,0,2.56,2.56,0,0,0-2.64,2.48,2.63,2.63,0,0,0,2.63,2.65l1,0v3.44H25.89V36H52.75ZM39.11,42.3a14.66,14.66,0,0,1-2,0,.48.48,0,0,1-.2-.07.63.63,0,0,1-.08-1.08A.32.32,0,0,1,37,41a40.64,40.64,0,0,1,4.13,0,.4.4,0,0,1,.2.07.63.63,0,0,1-.07,1.09.44.44,0,0,1-.19.07A14.79,14.79,0,0,1,39.11,42.3Zm20.55,5.46-1.33.06V20h1.33Zm1.27-29.65c-1-.07-2,0-3,0-1.21-.07-1.63.43-1.62,1.62,0,5.15,0,10.3,0,15.46V47.75H54.76V41.06c0-1.42,0-2.84,0-4.27C54.75,34.7,54,34,52,34l-4.27,0a1.91,1.91,0,0,1-.29-.13V32.63c.73,0,1.38,0,2,0a2,2,0,0,0,2.27-2.25c0-1.05.05-2.1,0-3.14a2,2,0,0,0-2.09-2c-2.13,0-4.27,0-6.4,0a2,2,0,0,0-2.11,2.13c0,1,0,2.09,0,3.14a2,2,0,0,0,2.2,2.17c.66,0,1.33,0,2.07,0l.08,1.24a8.67,8.67,0,0,1-.91.1H26.85c-2.33,0-3,.64-3,3,0,3.48,0,6.95,0,10.43a1.34,1.34,0,0,1-.08.33H15.43V20h4L33.28,20H52a2.94,2.94,0,0,0,1.12-.08c.29-.13.66-.53.64-.78a1.24,1.24,0,0,0-.64-.91,3.8,3.8,0,0,0-1.36-.08H11.38c-1.84,0-1.85,0-1.85-1.8,0-4.31,0-8.62,0-12.94,0-1.17.43-1.51,1.55-1.51q24.93,0,49.87,0c1.16,0,1.55.41,1.54,1.54q-.06,6.6,0,13.19C62.48,17.71,62.09,18.19,60.93,18.11ZM43.05,30.63V27.2h6.67v3.43Z"/></g></g></svg>