<svg xmlns="http://www.w3.org/2000/svg" viewBox="0 0 31.09 23.3"><defs><style>.cls-1{fill:#223265;}</style></defs><g id="Layer_2" data-name="Layer 2"><g id="Layer_5" data-name="Layer 5"><path class="cls-1" d="M0,6.54.7,7l11.86,7.91a4.75,4.75,0,0,0,6,0L30.44,7l.62-.39c0,.23,0,.4,0,.57V20.18A2.89,2.89,0,0,1,28,23.3H3.11A2.88,2.88,0,0,1,0,20.19c0-4.35,0-8.7,0-13Z"/><path class="cls-1" d="M15.54,0H28.11a2.85,2.85,0,0,1,3,3,2.77,2.77,0,0,1-1.39,2.28L18.84,12.5l-1.56,1.05a2.9,2.9,0,0,1-3.46,0L1.36,5.24A2.74,2.74,0,0,1,.13,2,2.86,2.86,0,0,1,2.92,0C6.48,0,10,0,13.6,0Z"/></g></g></svg>