<svg xmlns="http://www.w3.org/2000/svg" viewBox="0 0 39.62 39.62"><defs><style>.cls-1{fill:#ef4136;}.cls-2{fill:#fff;}</style></defs><g id="Layer_2" data-name="Layer 2"><g id="Layer_11" data-name="Layer 11"><rect class="cls-1" width="39.62" height="39.62" rx="7.35"/><path class="cls-2" d="M29,31.82A2.81,2.81,0,0,1,27,31L8.63,12.66a2.85,2.85,0,1,1,4-4L31,27a2.85,2.85,0,0,1-2,4.86Z"/><path class="cls-2" d="M10.64,31.82a2.8,2.8,0,0,1-2-.83,2.84,2.84,0,0,1,0-4L27,8.63a2.85,2.85,0,1,1,4,4L12.66,31A2.84,2.84,0,0,1,10.64,31.82Z"/></g></g></svg>