<svg xmlns="http://www.w3.org/2000/svg" viewBox="0 0 28.55 38.07"><defs><style>.cls-1{fill:#223265;}</style></defs><g id="Layer_2" data-name="Layer 2"><g id="Layer_5" data-name="Layer 5"><path class="cls-1" d="M23.79,14.25c.64,0,1.23,0,1.8.1a3.54,3.54,0,0,1,2.95,3.27c0,.12,0,.24,0,.36V34.39a3.57,3.57,0,0,1-3.62,3.67H3.62A3.55,3.55,0,0,1,0,34.47q0-8.29,0-16.59a3.56,3.56,0,0,1,3.6-3.6H4.76V9.58A9.51,9.51,0,0,1,23.55,7.47a11.89,11.89,0,0,1,.23,2.15c0,1.44,0,2.87,0,4.31ZM8,14.27H20.61v-.36c0-1.34,0-2.68,0-4a10.81,10.81,0,0,0-.09-1.39A6.33,6.33,0,0,0,8,9.45c0,1.52,0,3.05,0,4.58A2.32,2.32,0,0,0,8,14.27Zm6.32,6.36a3.19,3.19,0,0,0-3,2.19,3.13,3.13,0,0,0,1.17,3.53.57.57,0,0,1,.27.53c0,1.07,0,2.14,0,3.21a1.51,1.51,0,0,0,.94,1.49,1.55,1.55,0,0,0,2.2-1.36c0-1.1,0-2.2,0-3.3a.62.62,0,0,1,.29-.59,3.09,3.09,0,0,0,1.14-3.53A3.17,3.17,0,0,0,14.28,20.63Z"/></g></g></svg>