<svg xmlns="http://www.w3.org/2000/svg" viewBox="0 0 38.43 38.24"><defs><style>.cls-1{fill:#fff;}</style></defs><g id="Layer_2" data-name="Layer 2"><g id="Screen_3" data-name="Screen 3"><path class="cls-1" d="M38.42,18.42A19.48,19.48,0,0,1,20.74,38.18,19.23,19.23,0,0,1,6.33,4.74c1.11-1,2.16-1.08,3-.21s.66,2-.42,3.05a15.44,15.44,0,0,0,5.71,26.15A15.42,15.42,0,0,0,29.35,7.52a3.54,3.54,0,0,1-1-1.8A1.61,1.61,0,0,1,29.48,4a1.85,1.85,0,0,1,2.08.35,18.5,18.5,0,0,1,5.84,9C37.88,15,38.09,16.72,38.42,18.42Z"/><path class="cls-1" d="M17.2,9.54c0-2.47,0-4.95,0-7.43A1.93,1.93,0,0,1,19.88.17a2.06,2.06,0,0,1,1.2,2.11c0,2.87,0,5.73,0,8.6,0,2,0,4.06,0,6.1,0,1.4-.81,2.31-2,2.28A2,2,0,0,1,17.21,17Q17.2,13.26,17.2,9.54Z"/></g></g></svg>