<svg xmlns="http://www.w3.org/2000/svg" viewBox="0 0 41.36 41.36"><defs><style>.cls-1{fill:#223265;}</style></defs><g id="Layer_2" data-name="Layer 2"><g id="Screen_4" data-name="Screen 4"><path class="cls-1" d="M0,20.67A20.68,20.68,0,1,1,20.7,41.36,20.69,20.69,0,0,1,0,20.67Zm25.22,10.1a16.35,16.35,0,0,1-2.15.26c-1.18,0-1.66-.48-1.56-1.64a21.42,21.42,0,0,1,.56-2.85c.48-2.06,1.12-4.1,1.45-6.19s-1-3.47-3.1-3.74a11,11,0,0,0-4.78.88c-.92.3-1.06.91-1.07,1.71.52-.12,1-.27,1.46-.33,1.81-.22,2.47.47,2.15,2.27-.17.92-.44,1.82-.66,2.74-.45,1.93-1,3.85-1.31,5.8a3,3,0,0,0,2.56,3.47,8.87,8.87,0,0,0,5.34-.74A1.49,1.49,0,0,0,25.22,30.77Zm-2.68-16.9a3.1,3.1,0,0,0,3.14-2.94,3.12,3.12,0,0,0-3.19-3,3.07,3.07,0,0,0-3.12,3A3.08,3.08,0,0,0,22.54,13.87Z"/></g></g></svg>