<svg xmlns="http://www.w3.org/2000/svg" viewBox="0 0 49.1 53.04"><defs><style>.cls-1{fill:#223265;}</style></defs><g id="Layer_2" data-name="Layer 2"><g id="Screen_3" data-name="Screen 3"><path class="cls-1" d="M46.94,41.15A22.74,22.74,0,0,0,35.19,30.89c-1.41-.59-2.89-1-4.4-1.53,0-.19,0-.43,0-.68a1.36,1.36,0,0,1,.56-1.24A10.49,10.49,0,0,0,34.78,23a13,13,0,0,0,.87-5.62v-1l.4.19a.94.94,0,0,0,1.35-.82,30.22,30.22,0,0,0-.07-4.47A12.76,12.76,0,0,0,25.33,0a12.93,12.93,0,0,0-12.8,8c-1,2.57-.95,5.23-.89,7.9A1.09,1.09,0,0,0,12.83,17l.6-.06v1.55A10.94,10.94,0,0,0,18,27.59a.66.66,0,0,1,.25.36c0,.46,0,.92,0,1.38-.2.06-.35.11-.5.14a24.9,24.9,0,0,0-8,3.4c-4.86,3.2-8.2,7.49-9.4,13.27A28.77,28.77,0,0,0,0,49a.67.67,0,0,0,.67.74H9.75c.39,0,.56.08.59.51.05.61.17,1.22.27,1.83a1,1,0,0,0,1,.92,5.31,5.31,0,0,0,.69,0h24.8c1.07,0,1.37-.26,1.5-1.33.08-.6.18-1.21.27-1.86h10a.25.25,0,0,0,.25-.25h0A19,19,0,0,0,46.94,41.15ZM18.86,3.83A10.18,10.18,0,0,1,30,3.69a10.46,10.46,0,0,1,5.13,9.82A14.87,14.87,0,0,1,30.6,10a1.92,1.92,0,0,0-2.39-.42A48.74,48.74,0,0,1,14,14.69C13.56,10.13,14.9,6.32,18.86,3.83Zm-.65,20.53a6.57,6.57,0,0,1-2.46-4.84c-.08-1,0-1.94,0-2.84,2.34-.69,4.66-1.23,6.88-2.06s4.3-2,6.63-3a8.11,8.11,0,0,0,.69.83,12.52,12.52,0,0,0,3.22,2.46c.18.1.42.35.42.53a39.05,39.05,0,0,1-.14,4.72,8.12,8.12,0,0,1-3.69,5.76c-.25.18-.45.35-.69.52a3.34,3.34,0,0,1-.94.39,8.9,8.9,0,0,1-9.3-1.93C18.63,24.69,18.42,24.52,18.21,24.36Zm10.15,7.76a3.29,3.29,0,0,1-1.29,1,6.63,6.63,0,0,1-5.31-.14,1.89,1.89,0,0,1-1.3-2.07,14.27,14.27,0,0,0,0-1.74,10.82,10.82,0,0,0,8,0c0,.71,0,1.31,0,1.9C28.48,31.37,28.56,31.86,28.36,32.12Zm-26,15.31A18.08,18.08,0,0,1,8.22,36.84c.54,3.58,1.06,7.06,1.58,10.59Zm34,3.41H12.76C12.12,46.91,11.48,43,10.84,39H38.13C37.53,43,36.93,46.89,36.33,50.84ZM8.62,36.67a24.52,24.52,0,0,1,9.51-4.92c.14.38.23.75.39,1.08a5,5,0,0,0,2.71,2.39,8.67,8.67,0,0,0,7.07-.07,4.38,4.38,0,0,0,2.76-3.29,24.1,24.1,0,0,1,9.63,4.81ZM39.28,47.42c.53-3.5,1-7,1.56-10.45,2.17,1,5.46,6.89,5.88,10.45Z"/><path class="cls-1" d="M24.53,48.72a3.73,3.73,0,1,0-3.72-3.78A3.75,3.75,0,0,0,24.53,48.72Zm0-5.2A1.51,1.51,0,0,1,26,45a1.43,1.43,0,0,1-1.46,1.32,1.51,1.51,0,0,1-1.49-1.48A1.42,1.42,0,0,1,24.55,43.52Z"/></g></g></svg>