<svg xmlns="http://www.w3.org/2000/svg" viewBox="0 0 44.18 44.24"><defs><style>.cls-1{fill:#fff;}</style></defs><g id="Layer_2" data-name="Layer 2"><g id="Screen_4" data-name="Screen 4"><path class="cls-1" d="M4.72,26.3A13.67,13.67,0,0,1,2.92,26a4.05,4.05,0,0,1-2-6.47,10.12,10.12,0,0,1,.71-.75L18.79,1.65c2.19-2.19,4.42-2.2,6.6,0q8.73,8.73,17.45,17.46A4.07,4.07,0,0,1,41.3,26a13.74,13.74,0,0,1-1.82.28v1c0,3.86,0,7.71,0,11.57,0,3.49-1.9,5.39-5.38,5.39h-6c-1.39,0-1.78-.4-1.78-1.81V33.11c0-2-.75-2.73-2.7-2.73H20.29a2.19,2.19,0,0,0-2.45,2.45c0,3.19,0,6.39,0,9.58,0,1.46-.37,1.83-1.84,1.83H9.78a4.77,4.77,0,0,1-5-5c0-4,0-7.94,0-11.91Z"/></g></g></svg>