<svg xmlns="http://www.w3.org/2000/svg" viewBox="0 0 28.55 38.07"><defs><style>.cls-1{fill:#223265;}</style></defs><g id="Layer_2" data-name="Layer 2"><g id="Layer_5" data-name="Layer 5"><path class="cls-1" d="M28.55,18c0-.12,0-.24,0-.36a3.54,3.54,0,0,0-2.95-3.27c-.57-.08-1.16-.07-1.8-.1v-.32c0-1.44,0-2.87,0-4.31a11.89,11.89,0,0,0-.23-2.15A9.51,9.51,0,0,0,4.76,9.58v4.7H3.61A3.56,3.56,0,0,0,0,17.88q0,8.3,0,16.59a3.55,3.55,0,0,0,3.61,3.6H24.93a3.57,3.57,0,0,0,3.62-3.67ZM8,9.45A6.33,6.33,0,0,1,20.52,8.5a10.81,10.81,0,0,1,.09,1.39c0,1.34,0,2.68,0,4v.36H8a2.32,2.32,0,0,1,0-.24C7.94,12.5,7.92,11,8,9.45Zm13.22,14.1-6.89,6.89a1.4,1.4,0,0,1-2,0l-4-4a1.41,1.41,0,1,1,2-2l3,3,5.9-5.9a1.4,1.4,0,0,1,2,2Z"/></g></g></svg>