<svg xmlns="http://www.w3.org/2000/svg" viewBox="0 0 33.29 23.59"><defs><style>.cls-1{fill:#223265;}</style></defs><g id="Layer_2" data-name="Layer 2"><g id="Screen_3" data-name="Screen 3"><path class="cls-1" d="M13.82,8.85a4.94,4.94,0,0,1-.69-7.34,4.85,4.85,0,0,1,6.74-.28,4.66,4.66,0,0,1,1.61,3.88c-.05,1.27-.34,1.82-1.83,3.61A32.58,32.58,0,0,1,22.37,11,6.2,6.2,0,0,1,24.19,15a51.12,51.12,0,0,1,.06,5.25,3.36,3.36,0,0,1-3.44,3.29q-4.15.06-8.31,0a3.28,3.28,0,0,1-3.4-3,30.42,30.42,0,0,1,.09-6A7.26,7.26,0,0,1,13.82,8.85Zm2.83,13.32h4a2.07,2.07,0,0,0,2.2-2.2c0-1.38,0-2.77,0-4.15a6.25,6.25,0,0,0-5.71-6.1,6.11,6.11,0,0,0-6.61,5.14A39.55,39.55,0,0,0,10.42,20a2.07,2.07,0,0,0,2.21,2.2Zm0-13.87a3.46,3.46,0,0,0,.07-6.91,3.5,3.5,0,0,0-3.52,3.42A3.47,3.47,0,0,0,16.63,8.3Z"/><path class="cls-1" d="M3.68,9.54a4.17,4.17,0,1,1,5.46-6.3C10.93,5,10.83,7.41,8.86,9.53l.25.18c.36.26.48.65.2.95a1,1,0,0,1-.88.22,5.49,5.49,0,0,0-2.91-.42A4.8,4.8,0,0,0,1.44,15c0,1,0,2,0,3A2,2,0,0,0,3.5,20.09c1.09,0,2.17,0,3.25,0,.49,0,.9.12.92.67s-.43.73-.94.73c-1.06,0-2.12,0-3.18,0A3.47,3.47,0,0,1,0,17.88c0-1.06-.06-2.13,0-3.18a6.11,6.11,0,0,1,3-4.81ZM9,6.26A2.75,2.75,0,1,0,6.24,9,2.75,2.75,0,0,0,9,6.26Z"/><path class="cls-1" d="M24.44,9.52c-2-2.1-2.07-4.56-.28-6.28a4.14,4.14,0,0,1,5.8,0C31.71,5,31.6,7.45,29.64,9.53l.48.3a6.15,6.15,0,0,1,3.16,5.39c0,.91,0,1.82,0,2.73a3.44,3.44,0,0,1-3.4,3.53c-1.13.05-2.25,0-3.38,0-.49,0-.89-.18-.87-.73s.39-.67.86-.67q1.59,0,3.18,0a2.06,2.06,0,0,0,2.21-2.18q0-1.36,0-2.73a4.83,4.83,0,0,0-6.76-4.38c-.14.06-.29.19-.42.16s-.61-.12-.7-.3a1.25,1.25,0,0,1,.06-.82C24.1,9.71,24.31,9.63,24.44,9.52Zm5.36-3.3A2.76,2.76,0,1,0,27.06,9,2.75,2.75,0,0,0,29.8,6.22Z"/></g></g></svg>