<svg xmlns="http://www.w3.org/2000/svg" viewBox="0 0 44.47 46.36"><defs><style>.cls-1{fill:#223265;}</style></defs><g id="Layer_2" data-name="Layer 2"><g id="Screen_4" data-name="Screen 4"><path class="cls-1" d="M20.44,0A10.89,10.89,0,1,1,9.52,10.8,10.85,10.85,0,0,1,20.44,0Z"/><path class="cls-1" d="M21.41,26.37v9c0,1.56,0,3.11,0,4.66a9.65,9.65,0,0,0,1.07,5c-.38,0-.64.07-.91.07H4.1C1.45,45.11,0,43.68,0,41c0-2.3,0-4.6,0-6.89a3.59,3.59,0,0,1,2.14-3.5,39.05,39.05,0,0,1,18.29-4.4l.68,0Z"/><path class="cls-1" d="M24.51,33.93c0-2.24,0-4.47,0-6.7a5.48,5.48,0,0,1,5.74-5.75c1.55,0,3.1,0,4.65.12A4.71,4.71,0,0,1,38,23.26a1.54,1.54,0,0,1,.06,2.19,1.51,1.51,0,0,1-2.17.05,3.34,3.34,0,0,0-2.57-.92c-1,0-2.07,0-3.1,0a2.38,2.38,0,0,0-2.58,2.62c0,4.46,0,8.93,0,13.4a2.34,2.34,0,0,0,2.57,2.6c1,0,1.94,0,2.91,0A3.5,3.5,0,0,0,36,42.29a1.45,1.45,0,0,1,2.09.1,1.52,1.52,0,0,1,0,2.11,5.09,5.09,0,0,1-3.74,1.82c-1.55,0-3.11.06-4.66,0a5.35,5.35,0,0,1-5.13-5.11c-.08-2.43,0-4.86,0-7.28Z"/><path class="cls-1" d="M39,32a15.62,15.62,0,0,1-1.32-1.12,1.53,1.53,0,0,1,0-2.25,1.51,1.51,0,0,1,2.18,0c1.4,1.34,2.78,2.72,4.13,4.11a1.53,1.53,0,0,1,0,2.26q-2,2-4.06,4a1.52,1.52,0,0,1-2.25,0,1.5,1.5,0,0,1,.09-2.24,11.9,11.9,0,0,1,1.37-1.06l-.24-.39H35.72c-1.33,0-2.66,0-4,0-1.11,0-1.75-.57-1.77-1.5s.63-1.6,1.78-1.61c2.36,0,4.72,0,7.07,0Z"/></g></g></svg>