<svg xmlns="http://www.w3.org/2000/svg" viewBox="0 0 39.97 45.47"><defs><style>.cls-1{fill:#fff;}</style></defs><g id="Layer_2" data-name="Layer 2"><g id="Screen_3" data-name="Screen 3"><path class="cls-1" d="M13.39,40.14H1.63c-1.17,0-1.85-.73-1.57-1.69a1.92,1.92,0,0,1,.46-.74A21.32,21.32,0,0,0,6.22,22.4a28.59,28.59,0,0,1,.38-6.35,13.12,13.12,0,0,1,8.6-9.84A1,1,0,0,0,16,5.06a8.57,8.57,0,0,1,.12-2,4,4,0,0,1,7.81.4.52.52,0,0,1,0,.17c-.34,1.79.6,2.47,2.14,3.23a13,13,0,0,1,7.6,11.28c.16,2.18,0,4.38.14,6.57a20.34,20.34,0,0,0,5.24,12.61l.36.39c.48.48.78,1.12.37,1.67a2.09,2.09,0,0,1-1.44.75c-2.19.08-4.38,0-6.57,0-1.54,0-3.08,0-4.62,0a.7.7,0,0,0-.81.57,6.65,6.65,0,0,1-12.79-.14C13.52,40.45,13.47,40.35,13.39,40.14Zm22.15-2.72c0-.09,0-.12,0-.14a5.69,5.69,0,0,0-.33-.52A23.26,23.26,0,0,1,31.11,24.4c-.07-2,0-4.09-.11-6.12A11,11,0,0,0,9.16,16.82a35.27,35.27,0,0,0-.27,6.09,24,24,0,0,1-4.3,14l-.3.5ZM16.29,40.16a3.85,3.85,0,0,0,3.84,2.63,3.71,3.71,0,0,0,3.48-2.63Zm5-34.85c0-.93.34-1.92-.67-2.42A1.57,1.57,0,0,0,19.22,3c-.85.56-.56,1.48-.51,2.34Z"/><path class="cls-1" d="M40,18.05c0,.34,0,.66,0,1a1.32,1.32,0,1,1-2.64.09c-.14-1.17-.16-2.36-.38-3.52a16.86,16.86,0,0,0-4.47-8.52c-.7-.73-.8-1.46-.3-2a1.35,1.35,0,0,1,2.09.07,19.61,19.61,0,0,1,5.45,10.74C39.8,16.59,39.86,17.32,40,18.05Z"/><path class="cls-1" d="M0,18.1A19.89,19.89,0,0,1,5.64,5.16c.54-.55,1.19-.85,1.8-.35A2.41,2.41,0,0,1,8,6.24c0,.23-.28.57-.49.79A17.13,17.13,0,0,0,2.67,18.62c0,1.21-.52,1.81-1.37,1.8S0,19.74,0,18.49Z"/></g></g></svg>