<svg xmlns="http://www.w3.org/2000/svg" viewBox="0 0 45.62 38.38"><defs><style>.cls-1{fill:#223265;}</style></defs><g id="Layer_2" data-name="Layer 2"><g id="Screen_4" data-name="Screen 4"><path class="cls-1" d="M11.67,32.13a38.31,38.31,0,0,1,.26-4.43,8.34,8.34,0,0,1,8-6.91q3.16-.11,6.32,0a8.47,8.47,0,0,1,8.24,8.1c.1,2.28.05,4.57,0,6.85a1.13,1.13,0,0,1-.62.79,21.45,21.45,0,0,1-7,1.72,37.37,37.37,0,0,1-14.48-1.68.74.74,0,0,1-.64-.87c0-1.19,0-2.37,0-3.56Z"/><path class="cls-1" d="M10.18,31.38a37.78,37.78,0,0,1-9.8-1.84A.64.64,0,0,1,0,29.06a74.05,74.05,0,0,1,.19-8.17,8.28,8.28,0,0,1,8.1-7c2.13,0,4.27,0,6.51,0a8.75,8.75,0,0,0,2.54,5.68C11.94,21.67,9.75,25.69,10.18,31.38Z"/><path class="cls-1" d="M36.12,31.39c.38-5.6-1.72-9.68-7.07-11.79A22.74,22.74,0,0,0,30.64,17a26.32,26.32,0,0,0,.94-3.14h.94a49.16,49.16,0,0,1,6.2.22,8.32,8.32,0,0,1,6.85,7.8c.09,2.31,0,4.63,0,6.94a1.09,1.09,0,0,1-.52.76A22.53,22.53,0,0,1,36.12,31.39Z"/><path class="cls-1" d="M29.81,13.58a6.69,6.69,0,1,1-6.68-6.66A6.65,6.65,0,0,1,29.81,13.58Z"/><path class="cls-1" d="M11.37,13.52A6.9,6.9,0,0,1,4.72,6.73a6.67,6.67,0,0,1,13.34-.27,1.51,1.51,0,0,1-.43,1,9,9,0,0,0-2.56,4.29,1.61,1.61,0,0,1-.83,1A27.7,27.7,0,0,1,11.37,13.52Z"/><path class="cls-1" d="M33.94,13.37c-.21,0-.6,0-1-.1a1.86,1.86,0,0,1-1.86-1.7,7.09,7.09,0,0,0-3-4.5,1.23,1.23,0,0,1-.55-1.34,6.68,6.68,0,1,1,6.35,7.64Z"/></g></g></svg>