<svg xmlns="http://www.w3.org/2000/svg" viewBox="0 0 29.08 34.87"><defs><style>.cls-1{fill:#223265;}</style></defs><g id="Layer_2" data-name="Layer 2"><g id="Layer_5" data-name="Layer 5"><path class="cls-1" d="M14.57,34.86c-2.77,0-5.54,0-8.31,0a8,8,0,0,1-2.34-.33A5.22,5.22,0,0,1,.05,29.61,16.9,16.9,0,0,1,1.72,20.5a6.17,6.17,0,0,1,5.51-3.61,3.7,3.7,0,0,1,1.66.46c1,.49,1.94,1.17,3,1.61a7.39,7.39,0,0,0,6.78-.64,6.11,6.11,0,0,0,1.08-.71,3.68,3.68,0,0,1,3.6-.51,6.29,6.29,0,0,1,4,3.34A16.71,16.71,0,0,1,29,30.09c-.29,2.78-2.69,4.68-5.68,4.77H14.57Z"/><path class="cls-1" d="M5.93,8.41a8.4,8.4,0,1,1,8.38,8.37A8.32,8.32,0,0,1,5.93,8.41Z"/></g></g></svg>