<svg xmlns="http://www.w3.org/2000/svg" viewBox="0 0 52.84 58.75"><defs><style>.cls-1{fill:#223265;}</style></defs><g id="Layer_2" data-name="Layer 2"><g id="Screen_3" data-name="Screen 3"><path class="cls-1" d="M51,24.63a16.94,16.94,0,0,0-3.43-1.51,1.7,1.7,0,0,1-1.28-1.64c-.53-3.89-1.12-7.77-1.69-11.66a4.74,4.74,0,0,0-2-3.31c-.71-.5-1.44-.64-2,.11s-.27,1.36.31,2a4.44,4.44,0,0,1,1.1,2Q43,17,43.85,23.3a2.05,2.05,0,0,0,1.55,1.91c1.19.4,2.35.87,3.52,1.33a1.57,1.57,0,0,1,1.09,2c-1,7-2,13.94-3.06,20.91-.29,2-.77,2.42-2.75,2.85L26.89,56.06a1.36,1.36,0,0,0-1,1.71h0a1.36,1.36,0,0,0,1.6.95c6.39-1.38,11.64-2.52,18.17-4a4.75,4.75,0,0,0,3.9-4.28c1.07-7.29,2.11-14.58,3.23-21.86A3.57,3.57,0,0,0,51,24.63Z"/><path class="cls-1" d="M6.89,15.94a6,6,0,0,0-2.17,4.19Q3.19,29.3,1.65,38.46c-1.06,6.31-.53,1.75-1.6,8a4.4,4.4,0,0,0,3.5,4.86,1.43,1.43,0,0,0,1.53-1.82h0a1.38,1.38,0,0,0-1.19-1c-.73-.07-1.18-.68-1.11-1.64,0-.36.1-.72.16-1.08C5,33.71,5.4,32.48,7.47,20.4a4.16,4.16,0,0,1,1.15-2.26c.7-.71,1.21-1.33.53-2.2S7.63,15.4,6.89,15.94Z"/><path class="cls-1" d="M33.92,31.63a6.35,6.35,0,0,0-6.09,4.84,6.1,6.1,0,0,0,3.59,7.07,1.52,1.52,0,0,1,1.12,1.79,18.31,18.31,0,0,0,0,2.67c.05.81.43,1.4,1.35,1.41s1.3-.58,1.36-1.39a18.09,18.09,0,0,0,0-2.55,1.66,1.66,0,0,1,1.22-2,6.07,6.07,0,0,0,3.5-7A6.35,6.35,0,0,0,33.92,31.63Zm0,9.73a3.45,3.45,0,0,1-3.49-3.56,3.48,3.48,0,1,1,7,.1A3.43,3.43,0,0,1,33.92,41.36Z"/><path class="cls-1" d="M28.65,11.35c2,.91,2.22,2.18,2,4a6.28,6.28,0,0,0,0,1c0,.89.4,1.52,1.37,1.5s1.32-.68,1.34-1.55.05-1.78,0-2.67a1.36,1.36,0,0,1,1-1.6,6.09,6.09,0,0,0,3.74-6.89A6.23,6.23,0,0,0,26,4.52C25.28,7.1,26.2,10.23,28.65,11.35ZM33,2.85a3.5,3.5,0,0,1-1,6.88,3.46,3.46,0,0,1-3.39-3.55A3.5,3.5,0,0,1,33,2.85Z"/><path class="cls-1" d="M18.82,13.58a6.28,6.28,0,0,0-6.52,4.23c-.88,2.62,0,5.91,2.53,7.05,2.08.95,2.23,2.25,2,4a8,8,0,0,0,0,.85c0,.91.39,1.56,1.3,1.58s1.41-.65,1.4-1.61V25.93c.46-.19.87-.33,1.27-.51a6.21,6.21,0,0,0-2-11.84Zm.45,9.54a3.49,3.49,0,1,1,2.46-3.57A3.53,3.53,0,0,1,19.27,23.12Z"/><path class="cls-1" d="M15.57,11c1.09.12,1.44-.64,1.59-1.58.22-1.39.43-2.79.76-4.17s.85-1.57,2.1-1.31c.87.18,1.74.38,3,.65.31-.28,1-.62,1.16-1.13.32-.79-.2-1.4-1-1.62s-1.57-.37-2.36-.54c-2.95-.66-4.83.49-5.55,3.48-.33,1.42-.53,2.86-.76,4.3C14.31,10,14.44,10.84,15.57,11Z"/><path class="cls-1" d="M33.9,36.49c-.79.11-1.46.41-1.46,1.38a1.25,1.25,0,0,0,1.38,1.34c.87,0,1.51-.31,1.56-1.27S34.8,36.61,33.9,36.49Z"/><path class="cls-1" d="M32,7.58a1.33,1.33,0,0,0,1.48-1.39A1.36,1.36,0,0,0,32,4.89a1.29,1.29,0,0,0-1.41,1.34C30.55,7.14,31.14,7.58,32,7.58Z"/><path class="cls-1" d="M18.32,18.44c-.91,0-1.54.37-1.58,1.28s.58,1.35,1.45,1.43,1.52-.46,1.53-1.38A1.28,1.28,0,0,0,18.32,18.44Z"/></g></g></svg>