<svg xmlns="http://www.w3.org/2000/svg" viewBox="0 0 49.24 61.38"><defs><style>.cls-1{fill:#223265;}</style></defs><g id="Layer_2" data-name="Layer 2"><g id="Screen_3" data-name="Screen 3"><path class="cls-1" d="M7.67,57.84v2.31c0,.66-.19,1.35-.94,1.21-.37-.08-.85,0-.9-1.12,0-.1,0-.94,0-1.06-.12-1.16,0-1.43-1.33-2A2.81,2.81,0,0,1,3,54.42C3,53.6,3,52.77,3,52,.59,51.59.28,51.32.08,49a25.25,25.25,0,0,1,0-3.89c.18-2.4.46-2.65,3-3.07,0-.67,0-1.37,0-2.08,0-2.09.63-2.94,2.53-3.72a1.47,1.47,0,0,0,.7-.69A7.27,7.27,0,0,1,12,31c2.06-.4,4.1-.85,6.13-1.37a2.52,2.52,0,0,0,1.19-.69c.78-.83.27-1.43-.4-1.95a9.1,9.1,0,0,1-3.59-7c0-.52,0-1-.7-1.16a2.76,2.76,0,0,1-2.38-2.86,2.92,2.92,0,0,1,2.43-2.86l.63-.18c0-2.38,0-4.73,0-7.09,0-3.71,2.08-5.75,5.81-5.76a4.09,4.09,0,0,1,1.31,0c.44.16,1.1.49,1.16.83.14.78-.53.94-1.19,1s-1.44,0-2.16,0a3.28,3.28,0,0,0-3.13,3.2c-.07,2,0,4,0,6.15.44-.28.77-.47,1.08-.68a5.43,5.43,0,0,1,6.19-.34,4.3,4.3,0,0,0,3.8.38,4.51,4.51,0,0,1,4.11.28c0-2.23.15-4.37-.06-6.47a3,3,0,0,0-3.06-2.53,21.18,21.18,0,0,1-2.27-.11,1.23,1.23,0,0,1-.72-.88A1,1,0,0,1,26.84.1C28.92-.06,31-.12,32.66,1.56a5.33,5.33,0,0,1,1.52,3.91c0,2.47,0,4.94,0,7.42.43.13.78.21,1.11.33a2.85,2.85,0,0,1,1.95,2.85,2.72,2.72,0,0,1-2,2.64c-.78.18-1,.48-1,1.26a9.35,9.35,0,0,1-3.57,7,1.81,1.81,0,0,0-.66,1.43,2.08,2.08,0,0,0,1.29,1.11c2.32.6,4.67,1.07,7,1.61a7,7,0,0,1,4.94,4.16,1.87,1.87,0,0,0,.92.92,3.35,3.35,0,0,1,2.37,3.25c0,.83,0,1.67,0,2.57.42,0,.72.11,1,.12a1.57,1.57,0,0,1,1.69,1.52,62.22,62.22,0,0,1,0,6.55c-.08,1.44-1.3,1.64-2.71,1.59,0,.74,0,1.43,0,2.13a3.48,3.48,0,0,1-2.26,3.71,1.32,1.32,0,0,0-.52.89,17.24,17.24,0,0,1-.07,1.91.69.69,0,0,1-.14.25,1,1,0,0,1-1.49,0,.55.55,0,0,1-.11-.25,17.54,17.54,0,0,1,0-2.64H38.51c-1.12,0-2.23,0-3.35,0-.68,0-1.39,0-1.37-.92S34.55,56,35.2,56h1.91c1.88,0,3.76,0,5.64,0,1.39,0,1.86-.51,1.88-1.89,0-.36,0-.72,0-1.08a1.35,1.35,0,0,0-.7-1.56,3.06,3.06,0,0,1-1.67-2.64c0-1,0-2,0-3-.1-1.81.52-3.13,2.39-3.7,0-.74,0-1.46,0-2.18,0-1.52-.49-2-2-2H7.28c-2.09,0-2.44.35-2.44,2.42v1.77c2,.58,2.5,2.09,2.38,4,0,.8,0,1.6,0,2.4a3.05,3.05,0,0,1-1.79,3.11,1.24,1.24,0,0,0-.56.87C4.63,55.76,4.89,56,8.2,56H29.3a2.87,2.87,0,0,1,1.18.07c.33.15.76.56.75.85s-.44.67-.77.85-.63,0-.95,0H7.67Zm24.8-40.6h-.08c0-.92,0-1.84,0-2.76a2.34,2.34,0,0,0-3-2.32A7.53,7.53,0,0,1,23,11.58c-1.68-.92-5.17.58-5.83,2.34a1.67,1.67,0,0,0-.06.59c0,1.8,0,3.6,0,5.39A7.65,7.65,0,0,0,24,27.15a7.55,7.55,0,0,0,8.22-6.1A32.08,32.08,0,0,0,32.47,17.24Zm9,18.82a5.09,5.09,0,0,0-3.52-3.12c-2-.48-4-.9-6-1.28a1.76,1.76,0,0,0-1.18.24,10.42,10.42,0,0,1-12.12,0,1.66,1.66,0,0,0-1.07-.26c-2.07.41-4.15.82-6.19,1.36a4.73,4.73,0,0,0-3.34,3.07ZM29,30.86,28,28.79H21.51l-1.06,2.09A8.74,8.74,0,0,0,29,30.86ZM5.36,47.12c0-.6,0-1.19,0-1.79A1.18,1.18,0,0,0,4,43.94a7.66,7.66,0,0,1-1.07,0c-.72-.09-1,.23-1,.93,0,1.35,0,2.69,0,4,0,.89.38,1.13,1.24,1.12,2.17,0,2.22,0,2.22-2.17Zm42.4-.27c-.07-.61-.19-1.32-.21-2s-.39-1-1.06-.89a9.73,9.73,0,0,1-1.08,0,1.13,1.13,0,0,0-1.3,1.31c0,1,0,2,0,3,0,1.61.14,1.67,1.79,1.77,1.19.08,1.79-.25,1.74-1.51A12.68,12.68,0,0,1,47.76,46.85ZM15.23,15l-.44-.22c-.25.44-.7.89-.68,1.32s.56.72.88,1.07l.24-.21Zm19.4-.22-.36.22v2l.31.16c.29-.39.79-.79.8-1.19S34.9,15.17,34.63,14.77Z"/><path class="cls-1" d="M22.34,42.65A4.3,4.3,0,0,1,26.67,47a4.34,4.34,0,1,1-4.33-4.31Zm0,6.86A2.53,2.53,0,0,0,24.88,47a2.59,2.59,0,0,0-2.6-2.56A2.61,2.61,0,0,0,19.77,47,2.57,2.57,0,0,0,22.38,49.51Z"/><path class="cls-1" d="M37.7,49.49a12.61,12.61,0,0,1,2.3,0,.49.49,0,0,1,.18.08A.88.88,0,0,1,40.32,51l-.34.32s-.16,0-.24,0c-3.87,0-4,.34-4-3.24,0-1.39,0-2.79,0-4.18,0-.85.34-1.26,1.2-1.23a29.07,29.07,0,0,1,3.1,0,.56.56,0,0,1,.27.13.88.88,0,0,1,0,1.39.64.64,0,0,1-.28.15,12.86,12.86,0,0,1-2.42,0v1.64a9.74,9.74,0,0,1,2.1,0,1.15,1.15,0,0,1,.25.12A.87.87,0,0,1,40,47.63l-.31.25c-.07,0-.23,0-.35,0C38.16,47.74,37.3,48.3,37.7,49.49Z"/><path class="cls-1" d="M12.43,47.91c.53-1.55,1-2.85,1.41-4.17.22-.66.53-1.34,1.3-1a1.62,1.62,0,0,1,.4,1.46c-.58,2-1.26,4-2,6-.16.44-.73,1-1.09,1s-.93-.57-1.1-1c-.76-2-1.46-4-2.07-6a1.66,1.66,0,0,1,.37-1.48c.76-.4,1.09.27,1.32.92C11.42,45,11.88,46.33,12.43,47.91Z"/><path class="cls-1" d="M30,44.49c-.27,0-.39-.06-.51-.06-.68,0-1.38-.06-1.35-.94s.78-.84,1.43-.85c.95,0,1.91,0,2.86,0,1.21,0,1.13.38,1.21.73.19.76-.49,1-1.16,1a6,6,0,0,0-.68,0V50c0,.64-.09,1.29-.89,1.29S30,50.71,30,50c0-1.43,0-2.86,0-4.29Z"/></g></g></svg>