<svg xmlns="http://www.w3.org/2000/svg" xmlns:xlink="http://www.w3.org/1999/xlink" viewBox="0 0 1253.52 1722.06"><defs><style>.cls-1{fill:#fff;}.cls-2{clip-path:url(#clip-path);}.cls-3{opacity:0.58;}.cls-10,.cls-11,.cls-12,.cls-13,.cls-14,.cls-15,.cls-16,.cls-17,.cls-18,.cls-19,.cls-20,.cls-21,.cls-22,.cls-23,.cls-24,.cls-25,.cls-26,.cls-27,.cls-28,.cls-29,.cls-30,.cls-31,.cls-32,.cls-33,.cls-34,.cls-35,.cls-36,.cls-37,.cls-38,.cls-39,.cls-4,.cls-40,.cls-41,.cls-42,.cls-43,.cls-44,.cls-45,.cls-46,.cls-47,.cls-48,.cls-49,.cls-5,.cls-50,.cls-51,.cls-6,.cls-7,.cls-8,.cls-9{fill:none;stroke:#d1d3d4;}.cls-10,.cls-11,.cls-12,.cls-13,.cls-14,.cls-15,.cls-16,.cls-17,.cls-18,.cls-19,.cls-20,.cls-21,.cls-22,.cls-23,.cls-24,.cls-25,.cls-26,.cls-27,.cls-28,.cls-29,.cls-30,.cls-31,.cls-32,.cls-33,.cls-34,.cls-35,.cls-36,.cls-37,.cls-38,.cls-39,.cls-4,.cls-40,.cls-41,.cls-42,.cls-43,.cls-44,.cls-45,.cls-46,.cls-47,.cls-48,.cls-49,.cls-5,.cls-50,.cls-51,.cls-7,.cls-8,.cls-9{stroke-miterlimit:10;}.cls-5{opacity:0;}.cls-6{stroke-miterlimit:10;opacity:0.04;}.cls-7{opacity:0.09;}.cls-8{opacity:0.13;}.cls-9{opacity:0.17;}.cls-10{opacity:0.22;}.cls-11{opacity:0.26;}.cls-12{opacity:0.3;}.cls-13{opacity:0.35;}.cls-14{opacity:0.39;}.cls-15{opacity:0.43;}.cls-16{opacity:0.48;}.cls-17{opacity:0.52;}.cls-18{opacity:0.57;}.cls-19{opacity:0.61;}.cls-20{opacity:0.65;}.cls-21{opacity:0.7;}.cls-22{opacity:0.74;}.cls-23{opacity:0.78;}.cls-24{opacity:0.83;}.cls-25{opacity:0.87;}.cls-26{opacity:0.91;}.cls-27{opacity:0.96;}.cls-28{opacity:0.04;}.cls-29{opacity:0.08;}.cls-30{opacity:0.12;}.cls-31{opacity:0.16;}.cls-32{opacity:0.2;}.cls-33{opacity:0.24;}.cls-34{opacity:0.28;}.cls-35{opacity:0.32;}.cls-36{opacity:0.36;}.cls-37{opacity:0.4;}.cls-38{opacity:0.44;}.cls-39{opacity:0.48;}.cls-40{opacity:0.52;}.cls-41{opacity:0.56;}.cls-42{opacity:0.6;}.cls-43{opacity:0.64;}.cls-44{opacity:0.68;}.cls-45{opacity:0.72;}.cls-46{opacity:0.76;}.cls-47{opacity:0.8;}.cls-48{opacity:0.84;}.cls-49{opacity:0.88;}.cls-50{opacity:0.92;}.cls-51{opacity:0.96;}</style><clipPath id="clip-path" transform="translate(245.47)"><rect class="cls-1" width="720" height="1426.39"/></clipPath></defs><g id="Layer_2" data-name="Layer 2"><g id="Layer_9" data-name="Layer 9"><rect class="cls-1" x="245.47" width="720" height="1426.39"/><g class="cls-2"><rect class="cls-1" x="245.47" width="720" height="1426.39"/><g class="cls-3"><path class="cls-4" d="M-86.53,857.19S178.22,909.18,320,1010,494.59,612.64,657.9,796.71s208.33,233.82,349.85,128.11" transform="translate(245.47)"/><path class="cls-4" d="M-84.29,846.92S174.55,904,317.28,1002.68s174.9-388.22,337.07-204.29,210.59,229.06,350.88,128.88" transform="translate(245.47)"/><path class="cls-4" d="M-82,836.65S170.87,898.86,314.6,995.42,489.77,616.28,650.79,800.06s212.85,224.32,351.93,129.66" transform="translate(245.47)"/><path class="cls-4" d="M-79.82,826.38s247,67.32,391.73,161.77,175.46-370,335.33-186.41,215.11,219.56,353,130.42" transform="translate(245.47)"/><path class="cls-4" d="M-77.58,816.11s241.11,72.44,386.8,164.77S485,619.93,643.68,803.42s217.38,214.81,354,131.19" transform="translate(245.47)"/><path class="cls-4" d="M-75.34,805.84s235.2,77.55,381.87,167.78,176-351.87,333.6-168.53,219.64,210.06,355.06,132" transform="translate(245.47)"/><path class="cls-4" d="M-73.1,795.57s229.29,82.66,376.94,170.78,176.3-342.78,332.73-159.58,221.9,205.31,356.11,132.74" transform="translate(245.47)"/><path class="cls-4" d="M-70.87,785.31s223.39,87.76,372,173.77S477.73,625.4,633,808.45,857.18,1009,990.16,942" transform="translate(245.47)"/><path class="cls-4" d="M-68.63,775s217.48,92.87,367.1,176.78,176.85-324.6,331-141.7S855.89,1005.93,987.65,944.4" transform="translate(245.47)"/><path class="cls-4" d="M-66.39,764.77s211.57,98,362.17,179.78S472.91,629,625.91,811.8s228.68,191.05,359.23,135.05" transform="translate(245.47)"/><path class="cls-4" d="M-64.15,754.5S141.5,857.6,293.09,937.29,470.5,630.86,622.35,813.47,853.3,999.78,982.63,949.3" transform="translate(245.47)"/><path class="cls-4" d="M-61.92,744.23S137.83,852.44,290.41,930,468.1,632.69,618.8,815.15,852,996.7,980.12,951.74" transform="translate(245.47)"/><path class="cls-4" d="M-59.68,734s193.84,113.32,347.4,188.79,178-288.24,327.52-105.92S850.72,993.63,977.6,954.19" transform="translate(245.47)"/><path class="cls-4" d="M-57.44,723.69S130.49,842.12,285,915.49s178.25-279.16,326.66-97,237.73,172,363.4,138.14" transform="translate(245.47)"/><path class="cls-4" d="M-55.2,713.42s182,123.55,337.54,194.8,178.53-270.07,325.79-88,240,167.3,364.45,138.91" transform="translate(245.47)"/><path class="cls-4" d="M-53,703.15S123.15,831.81,279.66,901s178.8-261,324.92-79.1S846.84,984.4,970.07,961.53" transform="translate(245.47)"/><path class="cls-4" d="M-50.73,692.89S119.48,826.65,277,893.69,456.05,641.8,601,823.53,845.54,981.33,967.56,964" transform="translate(245.47)"/><path class="cls-4" d="M-48.49,682.62s164.3,138.87,322.77,203.8,179.36-242.8,323.19-61.21,246.78,153,367.58,141.22" transform="translate(245.47)"/><path class="cls-4" d="M-46.25,672.35s158.38,144,317.84,206.8,179.64-233.71,322.32-52.27,249.05,148.3,368.62,142" transform="translate(245.47)"/><path class="cls-4" d="M-44,662.08S108.46,811.18,268.9,871.89s179.93-224.62,321.46-43.33S841.67,972.1,960,971.32" transform="translate(245.47)"/><path class="cls-4" d="M-41.78,651.81S104.79,806,266.22,864.62s180.2-215.53,320.58-34.38S840.37,969,957.51,973.77" transform="translate(245.47)"/><path class="cls-4" d="M-39.54,641.54S101.12,800.86,263.53,857.35,444,650.91,583.25,831.91,839.08,966,955,976.22" transform="translate(245.47)"/><path class="cls-4" d="M-37.3,631.27S97.45,795.7,260.84,850.09s180.76-197.36,318.85-16.5,258.1,129.29,372.8,145.07" transform="translate(245.47)"/><path class="cls-4" d="M-35.06,621S93.78,790.54,258.15,842.82s181-188.26,318-7.56S836.49,959.8,950,981.11" transform="translate(245.47)"/><path class="cls-4" d="M-32.83,610.73S90.11,785.39,255.47,835.56s181.31-179.18,317.11,1.38S835.2,956.73,947.46,983.56" transform="translate(245.47)"/><path class="cls-4" d="M-30.59,600.47s117,179.76,283.37,227.82S434.37,658.2,569,838.62,833.91,953.65,945,986" transform="translate(245.47)"/><path class="cls-4" d="M-28.35,590.2S82.77,775.07,250.09,821,432,660,565.47,840.29s267.15,110.29,377,148.16" transform="translate(245.47)"/><path class="cls-4" d="M-26.11,579.93s105.2,190,273.51,233.83S429.56,661.85,561.92,842s269.4,105.53,378,148.93" transform="translate(245.47)"/><path class="cls-4" d="M-23.88,569.66s99.3,195.09,268.6,236.83,182.43-142.82,313.64,37.15S830,944.43,937.42,993.35" transform="translate(245.47)"/><path class="cls-4" d="M-21.64,559.39S71.75,759.6,242,799.22s182.71-133.73,312.78,46.1,273.93,96,380.09,150.48" transform="translate(245.47)"/><path class="cls-4" d="M-19.4,549.12S68.08,754.44,239.34,792s183-124.64,311.91,55,276.19,91.28,381.14,151.24" transform="translate(245.47)"/><path class="cls-4" d="M-17.16,538.85S64.41,749.28,236.65,784.69s183.27-115.55,311.05,64,278.45,86.53,382.18,152" transform="translate(245.47)"/><path class="cls-4" d="M-14.92,528.58S60.74,744.12,234,777.42,417.51,671,544.14,850.35s280.72,81.78,383.23,152.79" transform="translate(245.47)"/><path class="cls-4" d="M-12.69,518.31S57.07,739,231.28,770.16,415.1,672.78,540.59,852s283,77,384.27,153.57" transform="translate(245.47)"/><path class="cls-4" d="M-10.45,508.05s63.85,225.75,239,254.84S412.69,674.61,537,853.7,822.27,926,922.35,1008" transform="translate(245.47)"/><path class="cls-4" d="M-8.21,497.78S49.72,728.65,225.9,755.62s184.39-79.19,307.58,99.76S821,922.9,919.83,1010.48" transform="translate(245.47)"/><path class="cls-4" d="M-6,487.51s52,236,229.18,260.85,184.67-70.11,306.71,108.69,289.77,62.78,387.4,155.88" transform="translate(245.47)"/><path class="cls-4" d="M-3.74,477.24S42.38,718.33,220.53,741.09s184.94-61,305.84,117.64,292,58,388.44,156.65" transform="translate(245.47)"/></g><path class="cls-5" d="M-186.62,506.14S-1,274.86,314.27,338.9c181.67,36.89,116.78-432.23,297.31-313S855.42,206.17,927.45,152.6" transform="translate(245.47)"/><path class="cls-6" d="M-183.58,507.64S-2,276.07,305.32,333.47C483.11,366.07,426.88-84.08,606.43,34S846.2,196.47,919.63,147.89" transform="translate(245.47)"/><path class="cls-7" d="M-180.55,509.14S-3.14,278.29,296.36,328.05C470.19,356.93,422.71-74.82,601.28,42.11S837,186.76,911.81,143.18" transform="translate(245.47)"/><path class="cls-8" d="M-177.51,510.63S-4.18,280,287.4,322.63C457.33,347.49,418.54-65.56,596.12,50.23,773.86,166.11,827.76,177.06,904,138.47" transform="translate(245.47)"/><path class="cls-9" d="M-174.48,512.13S-5.2,281.64,278.45,317.21C444.49,338,414.37-56.31,591,58.35c176.81,114.78,227.57,109,305.19,75.41" transform="translate(245.47)"/><path class="cls-10" d="M-171.44,513.62S-6.19,283.27,269.49,311.79C431.67,328.57,410.2-47,585.82,66.47c175.87,113.68,223.5,91.18,302.52,62.58" transform="translate(245.47)"/><path class="cls-11" d="M-168.41,515.12S-7.15,284.87,260.53,306.37C418.85,319.08,406-37.79,580.67,74.59,755.61,187.16,800.1,148,880.52,124.34" transform="translate(245.47)"/><path class="cls-12" d="M-165.37,516.61S-8.1,286.43,251.57,301C406.06,309.58,401.86-28.54,575.51,82.72c174,111.46,215.37,55.53,297.18,36.91" transform="translate(245.47)"/><path class="cls-13" d="M-162.34,518.11S-9,288,242.62,295.52c150.66,4.54,155.07-314.8,327.74-204.68,173.08,110.36,211.3,37.71,294.51,24.08" transform="translate(245.47)"/><path class="cls-14" d="M-159.3,519.61s149.48-222.75,393-229.51C380.45,286,393.53-10,565.21,99c172.15,109.26,207.23,19.88,291.84,11.25" transform="translate(245.47)"/><path class="cls-15" d="M-156.27,521.1s145.48-230.24,381-236.42C367.75,280.93,389.36-.77,560.06,107.08c171.21,108.15,203.15,2.06,289.16-1.58" transform="translate(245.47)"/><path class="cls-16" d="M-153.23,522.6s141.58-230.38,369-243.34C355,271.32,385.19,8.49,554.91,115.2,725.19,222.25,754,99.44,841.4,100.8" transform="translate(245.47)"/><path class="cls-17" d="M-150.2,524.09s137.71-230.57,357-250.25C342.27,261.68,381,17.75,549.75,123.33c169.36,105.94,195-33.6,283.83-27.24" transform="translate(245.47)"/><path class="cls-18" d="M-147.16,525.59s133.83-230.83,345-257.17C329.54,252,376.85,27,544.6,131.45,713,236.29,735.55,80,825.75,91.38" transform="translate(245.47)"/><path class="cls-19" d="M-144.12,527.09s130-231.18,333-264.09C316.81,242.26,372.68,36.26,539.45,139.57,706.94,243.3,726.33,70.33,817.93,86.67" transform="translate(245.47)"/><path class="cls-20" d="M-141.09,528.58s126.07-231.6,321-271c124.16-25.1,188.59-212,354.38-109.88C700.85,250.32,717.11,60.62,810.11,82" transform="translate(245.47)"/><path class="cls-21" d="M-138,530.08S-15.88,298,171,252.15c120.37-29.51,193.38-197.38,358.18-96.34C694.77,257.34,707.89,50.92,802.28,77.25" transform="translate(245.47)"/><path class="cls-22" d="M-135,531.57s118.25-232.7,297-284.84c116.57-34,198.17-182.7,362-82.79C688.68,264.36,698.67,41.22,794.46,72.54" transform="translate(245.47)"/><path class="cls-23" d="M-132,533.07S-17.71,299.68,153,241.31c112.73-38.53,203-168,365.8-69.25C682.6,271.37,689.45,31.51,786.64,67.83" transform="translate(245.47)"/><path class="cls-24" d="M-128.95,534.57s110.24-234.17,273-298.68c108.84-43.13,207.75-153.35,369.6-55.71C676.52,278.39,680.23,21.81,778.81,63.12" transform="translate(245.47)"/><path class="cls-25" d="M-125.91,536.06s106.12-235,261-305.59C240,182.68,347.67,91.8,508.54,188.3,670.43,285.41,671,12.11,771,58.41" transform="translate(245.47)"/><path class="cls-26" d="M-122.88,537.56S-21,301.61,126.17,225.05c100.91-52.51,217.33-124,377.21-28.63,161,96,158.4-194,259.79-142.71" transform="translate(245.47)"/><path class="cls-27" d="M-119.84,539.05s97.58-236.92,237.06-319.43c96.82-57.27,222.11-109.31,381-15.08C658.26,299.44,652.56-7.3,755.35,49" transform="translate(245.47)"/><path class="cls-4" d="M-116.81,540.55S-23.67,302.6,108.26,214.2c92.66-62.08,226.9-94.63,384.82-1.53C652.18,306.46,643.34-17,747.52,44.29" transform="translate(245.47)"/><path class="cls-5" d="M-245.42,1230.12s239.76-25.42,452.51,215.8c122.6,139,272.89-194.49,359.59-5s108.88,268,186.52,280.64" transform="translate(245.47)"/><path class="cls-28" d="M-243.88,1232.76s237.05-28,446.82,204.79c121.57,134.26,270.49-183.27,357,5s113,255.38,189.67,271.72" transform="translate(245.47)"/><path class="cls-29" d="M-242.34,1235.4s233.83-30,441.13,193.78c120.24,129.8,268.1-172,354.31,15S670.24,1687,745.93,1707" transform="translate(245.47)"/><path class="cls-30" d="M-240.8,1238s230.89-32.29,435.44,182.77c119.08,125.2,265.7-160.83,351.67,25s121.27,230.18,196,253.88" transform="translate(245.47)"/><path class="cls-31" d="M-239.26,1240.68s228-34.59,429.75,171.77c117.93,120.59,263.31-149.61,349,35,85.82,184.79,125.41,217.59,199.14,245" transform="translate(245.47)"/><path class="cls-32" d="M-237.72,1243.32s225.07-36.89,424.06,160.76c116.79,116,260.91-138.39,346.39,45,85.6,183.61,129.54,205,202.29,236" transform="translate(245.47)"/><path class="cls-33" d="M-236.18,1246s222.19-39.2,418.37,149.75c115.65,111.39,258.52-127.17,343.75,55,85.38,182.42,133.67,192.39,205.45,227.13" transform="translate(245.47)"/><path class="cls-34" d="M-234.64,1248.6S-15.31,1207.08,178,1387.34c114.53,106.78,256.12-115.95,341.11,65,85.16,181.25,137.8,179.79,208.6,218.21" transform="translate(245.47)"/><path class="cls-35" d="M-233.1,1251.24s216.5-43.85,407,127.73c113.43,102.17,253.73-104.73,338.47,75C597.3,1634,654.29,1621.11,724.12,1663.22" transform="translate(245.47)"/><path class="cls-36" d="M-231.56,1253.88s213.69-46.19,401.3,116.73c112.34,97.55,251.33-93.52,335.83,84.94,84.72,178.89,146.06,154.59,214.91,200.38" transform="translate(245.47)"/><path class="cls-37" d="M-230,1256.52s210.9-48.55,395.61,105.72c111.26,92.92,248.94-82.29,333.19,94.93,84.5,177.71,150.2,142,218.07,191.46" transform="translate(245.47)"/><path class="cls-38" d="M-228.48,1259.17s208.15-50.93,389.92,94.7C271.64,1442.16,408,1282.8,492,1458.8c84.27,176.52,154.32,129.39,221.21,182.54" transform="translate(245.47)"/><path class="cls-39" d="M-226.94,1261.81s205.42-53.33,384.23,83.69c109.15,83.64,244.15-59.85,327.92,114.92,84.05,175.35,158.45,116.79,224.37,173.62" transform="translate(245.47)"/><path class="cls-40" d="M-225.4,1264.45s202.73-55.75,378.54,72.68c108.12,79,241.75-48.63,325.28,124.92,83.83,174.16,162.58,104.19,227.52,164.7" transform="translate(245.47)"/><path class="cls-41" d="M-223.86,1267.09S-23.8,1208.9,149,1328.77c107.11,74.3,239.36-37.42,322.64,134.9,83.61,173,166.71,91.59,230.68,155.79" transform="translate(245.47)"/><path class="cls-42" d="M-222.32,1269.73s197.42-60.67,367.16,50.67c106.12,69.61,237-26.19,320,144.9,83.4,171.8,170.85,79,233.83,146.86" transform="translate(245.47)"/><path class="cls-43" d="M-220.78,1272.37S-26,1209.18,140.69,1312c105.15,64.9,234.57-15,317.36,154.89,83.18,170.62,175,66.39,237,137.95" transform="translate(245.47)"/><path class="cls-44" d="M-219.24,1275s192.25-65.75,355.78,28.65c104.19,60.15,232.17-3.75,314.72,164.88,83,169.45,179.11,53.8,240.14,129" transform="translate(245.47)"/><path class="cls-45" d="M-217.7,1277.65s189.7-68.37,350.09,17.64c103.26,55.38,229.78,7.47,312.08,174.88,82.74,168.26,183.24,41.19,243.3,120.11" transform="translate(245.47)"/><path class="cls-46" d="M-216.16,1280.29s187.18-71,344.4,6.64c102.34,50.56,227.38,18.68,309.44,184.86,82.52,167.09,187.37,28.6,246.45,111.2" transform="translate(245.47)"/><path class="cls-47" d="M-214.62,1282.93s184.68-73.77,338.71-4.37c101.43,45.7,225,29.9,306.8,194.86,82.3,165.9,191.5,16,249.61,102.27" transform="translate(245.47)"/><path class="cls-48" d="M-213.08,1285.57s182.19-76.58,333-15.38C220.48,1311,342.53,1311.32,424.1,1475c82.08,164.73,195.64,3.4,252.76,93.36" transform="translate(245.47)"/><path class="cls-49" d="M-211.54,1288.21s179.71-79.46,327.33-26.39c99.65,35.83,220.2,52.35,301.52,214.84,81.86,163.55,199.77-9.2,255.92,84.45" transform="translate(245.47)"/><path class="cls-50" d="M-210,1290.85s177.23-82.43,321.64-37.4c98.77,30.8,217.8,63.57,298.88,224.84,81.64,162.36,203.9-21.81,259.07,75.52" transform="translate(245.47)"/><path class="cls-51" d="M-208.46,1293.49s174.73-85.49,316-48.4c97.87,25.7,215.41,74.78,296.25,234.82,81.41,161.19,208-34.4,262.22,66.61" transform="translate(245.47)"/><path class="cls-4" d="M-206.92,1296.13s172.19-88.64,310.26-59.41c97,20.53,213,86,293.61,244.82,81.19,160,212.15-47,265.37,57.69" transform="translate(245.47)"/></g></g></g></svg>